# xmcd CD database file
#
# Track frame offsets:
#	150
#	10414
#	23616
#	35606
#	57195
#	68585
#	84412
#	104701
#	113741
#	122655
#	135382
#	147347
#	164974
#	174176
#	185010
#
# Disc length: 2642 seconds
#
# Revision: 0
# Processed by: cddbd v1.4PL0 Copyright (c) Steve Scherf et al.
# Submitted via: CDex 1.40Release
#
DISCID=cc0a500f
DTITLE=Johnny Cash - American Outtakes (Bootleg)
DYEAR=1994
DGENRE=Country
TTITLE0=What on earth
TTITLE1=The drifter
TTITLE2=I witnessed a crime (with Billy Gibbons)
TTITLE3=Banks of the Ohio
TTITLE4=The next time I'm in town
TTITLE5=Breaking bread
TTITLE6=To beat the devil
TTITLE7=Friends in California
TTITLE8=The Caretaker
TTITLE9=The wonder of you
TTITLE10=East virginia blues
TTITLE11=Oh, bury me not (take 2)
TTITLE12=Old chunk of coal
TTITLE13=Go on blues
TTITLE14=If I give my soul
EXTD=YEAR: 1994 ID3G: 2
EXTT0=
EXTT1=
EXTT2=
EXTT3=
EXTT4=
EXTT5=
EXTT6=
EXTT7=
EXTT8=
EXTT9=
EXTT10=
EXTT11=
EXTT12=
EXTT13=
EXTT14=
PLAYORDER=
